<svg version="1.1" id="Layer_1" xmlns="http://www.w3.org/2000/svg" xmlns:xlink="http://www.w3.org/1999/xlink" x="0px" y="0px"
	 width="100%" viewBox="0 0 960 784" enable-background="new 0 0 960 784" xml:space="preserve">
<path fill="#000000" opacity="1.000000" stroke="none" 
	d="
M309.327698,383.211182 
	C309.866333,393.632355 308.332336,403.259521 304.889923,412.601654 
	C297.804047,431.831451 283.248749,441.266785 259.556885,441.889648 
	C255.395050,441.999084 251.223297,442.033112 247.064743,441.875214 
	C243.314407,441.732819 241.764709,443.411133 241.264725,447.064240 
	C239.415695,460.574188 237.209991,474.036194 235.442596,487.555969 
	C234.980118,491.093750 233.772385,492.468781 230.158630,492.408478 
	C220.063507,492.239868 209.963745,492.349823 199.485992,492.349823 
	C199.388428,484.733978 201.079666,478.105835 202.006210,471.427460 
	C205.775101,444.262054 209.768616,417.127686 213.708527,389.986145 
	C215.213196,379.620697 216.808533,369.268402 218.333939,358.905945 
	C218.672791,356.604126 219.198959,354.710907 222.184265,354.765411 
	C242.825272,355.142334 263.530731,353.526276 284.097351,355.575012 
	C300.128387,357.171906 307.975128,366.371338 309.327698,383.211182 
M258.907562,412.690704 
	C260.969757,412.098572 263.153809,411.766327 265.072083,410.867126 
	C271.679443,407.769836 275.284851,399.621857 273.671417,391.896698 
	C272.516541,386.367188 268.603363,383.904724 260.156799,383.453705 
	C258.500916,383.365295 256.828278,383.534668 255.178406,383.400299 
	C251.998901,383.141418 250.231598,384.227081 249.898102,387.677307 
	C249.452194,392.290314 248.513000,396.853821 247.995590,401.462158 
	C246.605850,413.839691 243.185013,413.074493 258.907562,412.690704 
z"/>
<path fill="#000000" opacity="1.000000" stroke="none" 
	d="
M643.590942,363.672516 
	C642.762756,366.935852 643.548523,370.121704 641.208923,373.370483 
	C635.963196,369.532043 630.752014,365.772522 625.609802,361.920685 
	C624.220642,360.880096 624.595093,359.189087 624.643555,357.717316 
	C625.275146,338.527985 633.263123,322.620758 647.185913,309.861908 
	C662.671753,295.670685 681.880737,288.423187 701.697815,282.793335 
	C729.683716,274.842804 758.015442,268.103424 785.622253,258.827271 
	C814.570923,249.100204 841.826477,236.276291 864.742432,215.509125 
	C868.770935,211.858337 872.968323,208.393860 877.113708,204.820938 
	C877.823608,206.256744 877.137024,208.742203 876.907654,211.063110 
	C873.904480,241.447281 857.957703,262.886505 831.351807,277.048767 
	C810.496094,288.150299 788.159973,295.253632 765.610107,301.802673 
	C760.615784,303.253143 759.891846,302.558350 759.795654,297.178070 
	C759.704407,292.074463 759.250916,287.024628 758.261536,281.896515 
	C755.632141,282.580719 755.058411,284.696289 754.030579,286.275635 
	C745.654114,299.146393 734.430603,307.361908 719.016052,310.561310 
	C702.935181,313.898926 686.750366,317.485260 672.162354,325.647797 
	C657.210693,334.013794 646.607727,345.746429 643.590942,363.672516 
z"/>
<path fill="#000000" opacity="1.000000" stroke="none" 
	d="
M673.052002,479.911285 
	C671.040466,477.296417 670.366577,474.083740 666.929138,472.407806 
	C657.520081,482.159180 649.937134,493.636292 640.991577,503.905792 
	C640.383423,503.782623 639.775208,503.659454 639.167053,503.536285 
	C628.849487,456.801636 618.531860,410.066986 607.826965,361.578003 
	C648.337646,389.997498 688.401306,416.912201 727.282288,446.200745 
	C715.118225,452.931488 701.544250,454.054871 689.245972,458.738159 
	C688.670227,461.185455 690.155945,462.691925 691.155640,464.366699 
	C698.237061,476.230042 705.226929,488.149628 712.455811,499.922424 
	C714.893738,503.892853 714.535645,506.427307 710.228210,508.623505 
	C706.985474,510.276794 703.974731,512.443115 701.033630,514.615173 
	C697.445679,517.264893 694.976868,516.914307 692.637573,512.856445 
	C686.318115,501.894135 679.730591,491.086426 673.052002,479.911285 
z"/>
<path fill="#000000" opacity="1.000000" stroke="none" 
	d="
M445.061340,400.298462 
	C446.392059,392.680481 446.392059,392.676483 453.890015,392.670593 
	C460.857849,392.665100 467.825684,392.669403 474.743469,392.669403 
	C476.714996,396.959351 473.734253,400.809998 474.819153,405.361633 
	C477.932495,402.634979 480.610199,400.262054 483.318054,397.924103 
	C489.533020,392.558075 496.924469,390.249695 504.964996,390.185394 
	C518.743530,390.075256 527.514648,398.828247 528.344482,412.827789 
	C529.041626,424.588348 526.549011,436.012299 525.033875,447.533539 
	C523.299622,460.720978 521.144592,473.852905 519.385498,487.037384 
	C518.880432,490.823242 517.552856,492.598511 513.417480,492.438843 
	C505.934265,492.149902 498.431335,492.273529 490.938568,492.371429 
	C487.710846,492.413574 486.363647,491.259247 486.863800,487.909760 
	C489.342316,471.311127 491.764465,454.703918 494.133759,438.089355 
	C494.507446,435.468903 494.734253,432.787231 494.639923,430.147766 
	C494.348969,422.009430 487.588531,418.503326 480.562378,422.798737 
	C475.445312,425.927063 473.605225,431.167389 472.300140,436.553558 
	C469.789185,446.916473 469.010651,457.569946 467.338745,468.075714 
	C466.293793,474.641724 465.191193,481.206940 464.457458,487.810608 
	C464.089752,491.119812 462.855225,492.476227 459.451111,492.400238 
	C451.794159,492.229248 444.129608,492.257263 436.470795,492.374847 
	C432.940491,492.429047 431.874847,491.256134 432.423553,487.595612 
	C436.489624,460.471954 440.367645,433.320129 444.296082,406.175903 
	C444.558075,404.365540 444.749176,402.544952 445.061340,400.298462 
z"/>
<path fill="#000000" opacity="1.000000" stroke="none" 
	d="
M384.996338,562.341919 
	C377.499817,562.341919 370.495636,562.523743 363.507446,562.267761 
	C359.687286,562.127808 358.061981,563.605286 357.685791,567.282471 
	C357.182343,572.203613 356.393829,577.095581 355.705933,582.160217 
	C360.074402,583.286316 364.068359,582.713318 368.007629,582.752441 
	C377.836548,582.850220 387.668060,582.882080 397.496277,582.759705 
	C401.117126,582.714600 402.806183,583.873840 402.176514,587.719727 
	C401.289581,593.136902 400.521454,598.575195 399.803833,604.017822 
	C399.415771,606.961243 398.099457,608.317444 394.921814,608.303406 
	C372.596863,608.204834 350.271271,608.214539 327.946075,608.269531 
	C324.683350,608.277527 323.403870,607.056580 323.885254,603.757751 
	C328.014984,575.455078 332.089996,547.144348 336.192871,518.837769 
	C336.956146,513.571899 337.912750,508.329285 338.505219,503.045074 
	C338.828247,500.163879 340.062866,498.908844 342.938721,498.913452 
	C365.097168,498.948944 387.255737,498.947144 409.414246,498.932922 
	C412.491974,498.930969 413.565765,500.422516 413.113831,503.359283 
	C412.329315,508.457153 411.503967,513.552856 410.906799,518.674072 
	C410.500519,522.158630 408.866516,523.403259 405.325928,523.350098 
	C393.499451,523.172424 381.665131,523.448120 369.841370,523.196350 
	C365.452209,523.102905 363.696625,524.448669 363.172089,528.963989 
	C361.970856,539.304993 360.383514,539.149109 372.382843,539.082520 
	C381.212738,539.033569 390.043610,539.119141 398.873016,539.035889 
	C402.874786,538.998230 404.737518,540.225098 403.735931,544.687439 
	C402.718781,549.219116 402.241821,553.879517 401.671082,558.501160 
	C401.314514,561.388489 399.830353,562.459412 396.989868,562.356140 
	C393.163239,562.216919 389.327301,562.333984 384.996338,562.341919 
z"/>
<path fill="#000000" opacity="1.000000" stroke="none" 
	d="
M667.382263,237.308487 
	C689.679688,224.880905 711.357666,212.192184 730.318054,195.414307 
	C743.767761,183.512711 755.233826,170.044479 763.214844,153.532745 
	C765.646790,154.694550 765.503418,156.850967 765.812256,158.657578 
	C769.775696,181.840591 762.494812,201.368683 746.070618,217.651367 
	C732.867920,230.740311 717.607056,241.123428 701.528992,250.369736 
	C697.693787,252.575333 696.302979,251.515610 695.583679,247.417191 
	C694.912476,243.592575 693.854858,239.761719 691.173218,236.027924 
	C689.557312,239.846619 688.254333,243.221390 686.723206,246.489258 
	C681.832153,256.928650 673.665833,263.875305 663.314209,268.643005 
	C651.498901,274.084778 639.989258,280.079041 630.449036,289.199921 
	C618.556763,300.569397 613.254089,313.842957 618.413940,330.218658 
	C618.702698,331.134827 618.908936,332.273132 618.630798,333.140350 
	C616.713806,339.117767 614.983459,345.130341 614.817749,351.203125 
	C612.464233,352.064240 611.918274,350.667511 611.179749,349.611237 
	C590.506897,320.044128 597.047913,282.872711 626.456177,261.897766 
	C639.364807,252.690872 653.074097,244.873062 667.382263,237.308487 
z"/>
<path fill="#000000" opacity="1.000000" stroke="none" 
	d="
M572.431763,562.309265 
	C571.572266,576.050842 568.759155,588.831604 559.854004,599.309448 
	C552.716125,607.707886 543.741882,611.956055 532.364685,609.330444 
	C528.478943,608.433655 525.620361,605.867126 522.466187,603.749695 
	C520.331421,604.791077 520.556702,606.767517 520.307861,608.497559 
	C519.171265,616.397583 517.919312,624.285095 517.002014,632.210999 
	C516.496826,636.575989 514.875671,638.742615 510.073639,638.319336 
	C505.448700,637.911621 500.734985,637.915710 496.106964,638.300415 
	C491.209717,638.707520 490.048523,636.741089 490.765839,632.265747 
	C492.658966,620.454712 494.371918,608.614319 496.088623,596.775757 
	C498.996826,576.720581 501.920837,556.667236 504.696320,536.593506 
	C505.769501,528.832031 505.593445,528.791809 513.479919,528.781494 
	C518.139221,528.775452 522.798828,528.817749 527.457886,528.873352 
	C527.928528,528.878967 528.396301,529.126526 528.760986,529.231689 
	C530.638977,530.886597 528.544067,533.287109 530.074707,534.934265 
	C531.372559,535.755554 532.250854,534.809204 533.103577,534.081482 
	C540.761902,527.545471 549.341919,524.645935 558.948364,528.871826 
	C568.561035,533.100403 570.802673,542.203735 572.163269,551.452515 
	C572.667847,554.882385 572.377441,558.429321 572.431763,562.309265 
M546.749573,563.438965 
	C546.722168,555.721741 544.443665,551.185913 540.190247,550.381409 
	C535.424622,549.480164 530.036316,553.776611 527.784180,560.608765 
	C525.957764,566.149231 524.701599,571.874207 525.579834,577.735413 
	C526.196228,581.849792 527.995300,585.661560 532.559631,586.470581 
	C537.268738,587.305237 540.440247,584.470703 542.578186,580.590942 
	C545.354370,575.553101 546.279968,569.986694 546.749573,563.438965 
z"/>
<path fill="#000000" opacity="1.000000" stroke="none" 
	d="
M542.771790,411.029724 
	C543.455444,406.317108 544.273926,402.062927 544.686707,397.769714 
	C545.033203,394.166260 546.390442,392.099457 550.298584,392.674438 
	C555.417358,393.427490 557.834961,391.145630 557.750305,386.081757 
	C557.602966,377.264648 561.883606,371.847107 569.902100,368.287079 
	C576.560791,365.330719 582.671448,361.144379 589.047180,357.542389 
	C590.443359,356.753601 591.705994,355.434479 594.219238,356.216858 
	C593.186890,363.783081 592.297180,371.472473 591.060669,379.105713 
	C588.933594,392.235962 588.843140,392.213959 601.765991,392.669128 
	C602.898315,392.709015 604.024353,392.927856 605.729248,393.132843 
	C605.251038,402.091156 603.618652,410.679260 602.116577,419.271423 
	C601.737122,421.441681 599.657166,421.066406 598.036255,421.239655 
	C593.812256,421.691162 588.656189,419.362061 585.567871,422.531036 
	C582.807373,425.363678 583.722717,430.399353 583.096985,434.474762 
	C581.861328,442.522766 580.633667,450.572906 579.518005,458.638153 
	C578.598389,465.285675 581.308472,467.692566 587.803833,466.225830 
	C589.714111,465.794464 591.551758,464.795288 593.954346,465.434296 
	C595.017273,473.509766 593.353271,481.557098 592.982910,489.632660 
	C592.914673,491.121521 591.555298,491.835388 590.201172,492.142761 
	C580.736267,494.291046 571.179565,495.706757 561.523376,493.825714 
	C551.944092,491.959625 547.113403,485.829163 546.644775,475.981171 
	C546.054443,463.572968 548.469666,451.480438 550.223633,439.311432 
	C551.046448,433.602722 551.763916,427.878845 552.508972,422.312378 
	C549.160706,420.298645 545.345459,422.489105 542.938721,420.426331 
	C540.001343,417.908630 543.177612,414.488922 542.771790,411.029724 
z"/>
<path fill="#000000" opacity="1.000000" stroke="none" 
	d="
M690.805725,584.922485 
	C696.612122,585.725159 701.969421,586.480347 708.188965,587.357117 
	C702.673340,596.536133 696.628662,603.775757 687.065125,607.229004 
	C677.255432,610.771240 667.177795,611.051697 657.022827,608.978088 
	C648.073486,607.150635 642.386230,601.508179 639.043945,593.230774 
	C631.057983,573.453186 639.112610,545.742920 656.773254,533.800659 
	C669.337402,525.304626 683.167847,524.969971 696.963196,530.130859 
	C706.484192,533.692688 710.460876,542.069397 712.121765,551.550659 
	C713.280029,558.163208 712.822388,564.824097 712.060669,571.473511 
	C711.643860,575.111328 710.004333,576.524475 706.202820,576.461426 
	C694.206360,576.262634 682.204285,576.405090 670.204346,576.415283 
	C662.836060,576.421570 661.754944,577.161743 662.169434,581.918030 
	C662.686646,587.853210 667.552063,592.202759 672.850403,591.345032 
	C675.344116,590.941345 677.941711,590.175537 679.575806,588.283508 
	C682.571045,584.815369 686.183960,584.171570 690.805725,584.922485 
M674.489075,546.621826 
	C670.329895,548.509399 667.589478,551.660828 665.944275,555.903992 
	C664.633789,559.283752 665.442688,561.024231 669.273743,560.971069 
	C672.769409,560.922546 676.278442,561.155457 679.759216,560.925720 
	C682.597534,560.738464 686.590576,562.518005 687.309570,557.596497 
	C687.979370,553.012329 684.631958,547.321045 680.688171,546.460205 
	C678.954224,546.081726 677.068054,546.400391 674.489075,546.621826 
z"/>
<path fill="#000000" opacity="1.000000" stroke="none" 
	d="
M476.988892,584.093872 
	C480.146729,592.111389 484.062744,599.431152 486.724121,608.177185 
	C477.216492,608.177185 468.449432,608.205322 459.682770,608.160034 
	C457.062256,608.146545 456.625122,605.920715 456.005310,604.057861 
	C453.912659,597.768311 451.886261,591.456726 449.638550,584.551514 
	C445.316650,588.304565 443.097290,592.793152 440.317596,596.788696 
	C432.362915,608.222351 432.438843,608.274597 418.354156,608.266907 
	C414.253510,608.264648 410.152863,608.266602 406.077271,608.266602 
	C405.691223,605.047058 407.571228,603.601624 408.756775,601.923584 
	C416.249512,591.318176 423.757812,580.721924 431.432465,570.248352 
	C433.357422,567.621338 433.534729,565.456604 432.119080,562.508911 
	C428.085022,554.109009 424.346191,545.566101 420.567810,537.045471 
	C419.574310,534.804993 418.232361,532.651794 418.080750,529.787292 
	C422.041687,527.965698 426.229065,528.951782 430.247986,528.924805 
	C435.711060,528.888062 442.033691,526.953735 446.418640,529.758789 
	C450.708527,532.503052 450.352020,539.284180 452.364899,544.165466 
	C452.918488,545.507874 453.103241,547.091248 455.039764,548.081726 
	C459.064697,544.200745 461.848602,539.242554 464.751801,534.505249 
	C467.433594,530.129150 470.682068,528.428345 475.787018,528.753418 
	C482.334869,529.170532 488.929413,528.854797 495.415070,528.854797 
	C495.835449,531.889832 494.266296,533.100281 493.237976,534.513916 
	C486.285919,544.070862 479.356964,553.646118 472.270966,563.103333 
	C470.351562,565.665039 469.928741,567.934082 471.358154,570.883850 
	C473.387848,575.072205 475.031219,579.447754 476.988892,584.093872 
z"/>
<path fill="#000000" opacity="1.000000" stroke="none" 
	d="
M345.523407,471.426941 
	C344.693146,477.301697 343.909210,482.734375 343.197418,488.176514 
	C342.811249,491.129059 341.400269,492.472870 338.246216,492.405945 
	C330.420746,492.239868 322.588745,492.261993 314.761383,492.362915 
	C311.346313,492.406952 310.439331,490.897980 310.900574,487.730835 
	C315.259552,457.801147 319.583710,427.866272 323.843933,397.922394 
	C324.367767,394.240326 325.749237,392.414001 329.897217,392.576141 
	C337.839203,392.886597 345.801941,392.666443 353.900940,392.666443 
	C354.855927,396.862122 353.566071,400.417267 353.401337,404.537506 
	C355.920471,401.455872 357.940002,398.544464 360.395874,396.065277 
	C367.274628,389.121246 378.677704,388.331696 386.628326,393.921173 
	C388.467834,395.214417 388.920715,396.539062 387.903107,398.544525 
	C384.135742,405.969208 380.398590,413.409546 376.711517,420.874359 
	C375.805695,422.708282 374.734314,423.046448 372.721985,422.459656 
	C363.018280,419.629852 358.488403,421.802032 354.326813,431.143219 
	C350.355042,440.058441 348.845306,449.607544 347.336121,459.145142 
	C346.712555,463.085938 346.175934,467.040527 345.523407,471.426941 
z"/>
<path fill="#000000" opacity="1.000000" stroke="none" 
	d="
M727.724854,539.874451 
	C732.983521,532.765137 739.972412,529.270325 748.132019,527.833862 
	C756.095520,526.431885 764.051270,526.582458 771.935669,528.363342 
	C780.870544,530.381592 786.242615,536.549133 787.601807,545.628662 
	C788.015869,548.394897 787.042908,549.171997 784.568359,549.429260 
	C778.781738,550.031006 773.000488,550.718384 767.242493,551.547180 
	C764.898193,551.884583 763.702637,551.265747 762.624084,549.015686 
	C760.355652,544.283142 754.292969,542.726196 749.890930,545.349670 
	C747.999817,546.476746 747.038757,548.106689 747.106323,550.293762 
	C747.178650,552.633240 748.617554,553.990601 750.704468,554.521118 
	C753.925842,555.339905 757.199219,555.958130 760.458984,556.619934 
	C762.086792,556.950439 763.751465,557.109436 765.368408,557.481140 
	C786.567017,562.353821 792.726807,582.340576 778.052795,598.693909 
	C772.741516,604.613159 766.070740,608.059753 758.226257,609.339417 
	C749.071228,610.832703 739.961365,610.718872 731.011169,608.244141 
	C721.942871,605.736816 717.510315,599.114563 715.871582,590.231079 
	C715.309448,587.183472 716.360779,585.476807 719.566772,585.132996 
	C725.683594,584.476929 731.794434,583.758850 737.898865,582.995483 
	C740.415649,582.680786 741.712891,583.935486 742.125671,586.170349 
	C743.503784,593.630859 753.805725,594.600952 758.773987,589.931152 
	C762.676880,586.262756 762.020935,582.033508 756.924683,580.366638 
	C751.560059,578.612000 746.057556,577.196838 740.531189,576.033264 
	C720.874878,571.894775 720.303345,554.650208 726.008240,542.763428 
	C726.438599,541.866760 727.012512,541.039062 727.724854,539.874451 
z"/>
<path fill="#000000" opacity="1.000000" stroke="none" 
	d="
M799.593689,549.011108 
	C803.083740,536.189148 811.899597,530.045227 823.978821,527.878357 
	C832.089966,526.423279 840.223877,526.604675 848.269775,528.492249 
	C856.338989,530.385437 862.573853,537.667114 863.389709,545.800049 
	C863.620850,548.103577 862.984375,549.157410 860.578308,549.401917 
	C855.618652,549.905884 850.674927,550.586853 845.738281,551.290710 
	C842.080933,551.812195 839.341064,551.621948 837.344055,547.452026 
	C835.420044,543.434631 831.015015,543.623535 827.147278,544.714905 
	C824.637390,545.423157 822.587036,547.110107 822.503235,549.969604 
	C822.413086,553.044373 824.702576,554.259705 827.292297,554.830811 
	C833.132507,556.118591 839.045898,557.104248 844.838379,558.572327 
	C858.169373,561.950989 864.014893,571.686340 860.687866,584.997253 
	C857.908081,596.118713 851.224365,604.023010 840.209167,607.622864 
	C828.665466,611.395447 816.917725,611.330750 805.340332,607.745850 
	C797.297913,605.255615 792.038818,597.654236 791.593140,589.276917 
	C791.458923,586.754639 792.239563,585.552673 794.718079,585.274475 
	C801.160706,584.551086 807.598999,583.786987 814.033691,582.996155 
	C816.799194,582.656250 817.166809,584.754639 817.990784,586.574646 
	C820.918640,593.041565 828.056458,594.849121 833.718811,590.622131 
	C835.857056,589.025879 837.143250,587.021729 836.782959,584.221252 
	C836.444580,581.591492 834.420837,580.704590 832.309082,580.121216 
	C826.540527,578.527710 820.699463,577.190247 814.953064,575.524048 
	C801.560059,571.640869 796.515381,563.020996 799.593689,549.011108 
z"/>
<path fill="#000000" opacity="1.000000" stroke="none" 
	d="
M384.343262,492.321533 
	C380.922241,492.223816 380.958557,490.379517 381.286255,488.147156 
	C383.941315,470.061890 386.529175,451.966827 389.171051,433.879639 
	C390.972504,421.546509 392.919891,409.233673 394.595032,396.883698 
	C395.017883,393.765930 396.269714,392.577454 399.384033,392.629761 
	C407.207977,392.761078 415.036438,392.746643 422.861237,392.646393 
	C426.214539,392.603424 427.088959,393.792542 426.586395,397.180603 
	C422.122711,427.273712 417.756653,457.381927 413.568756,487.514496 
	C413.030182,491.389618 411.456635,492.503265 407.781708,492.402252 
	C400.127777,492.191925 392.464142,492.336212 384.343262,492.321533 
z"/>
<path fill="#000000" opacity="1.000000" stroke="none" 
	d="
M820.040405,327.112671 
	C803.952454,335.828644 786.567627,338.912384 769.270264,342.258057 
	C761.503296,343.760315 753.736084,345.339111 746.046814,345.800323 
	C745.113953,344.600342 745.548157,343.916718 746.175171,343.310028 
	C752.966736,336.738953 757.049194,328.642273 759.100830,319.547424 
	C759.855164,316.203796 761.603821,315.215210 764.781799,314.551331 
	C791.052673,309.063843 817.018799,302.588837 840.213379,288.268707 
	C846.698853,284.264618 852.796753,279.698181 858.476929,274.302521 
	C862.142578,287.853912 841.831482,315.591766 820.040405,327.112671 
z"/>
<path fill="#000000" opacity="1.000000" stroke="none" 
	d="
M607.770874,528.758606 
	C612.975769,528.233398 612.261658,531.961670 612.438354,534.727844 
	C614.968506,534.937012 615.440613,532.946533 616.536194,531.895386 
	C622.317078,526.349121 630.525696,525.540161 637.191528,529.794006 
	C639.316162,531.149841 639.705505,532.487854 638.511658,534.718140 
	C635.765442,539.848816 633.146790,545.050720 630.600281,550.284058 
	C629.452576,552.642761 628.057312,553.254517 625.434448,552.475708 
	C619.602051,550.743896 616.478333,552.079590 613.482910,557.398010 
	C608.981750,565.389771 607.840210,574.358093 606.399170,583.203064 
	C605.251099,590.249634 604.212524,597.320374 603.393188,604.411316 
	C603.041931,607.451111 601.559326,608.323242 598.800415,608.281860 
	C593.145020,608.196838 587.478516,608.050354 581.833862,608.308167 
	C577.447693,608.508484 577.336731,606.051636 577.793091,602.919128 
	C579.516907,591.086609 581.259216,579.256714 582.971985,567.422607 
	C584.588989,556.250610 586.293274,545.089172 587.712463,533.891846 
	C588.171021,530.274292 589.432983,528.505249 593.328552,528.707581 
	C597.974304,528.948853 602.642456,528.757874 607.770874,528.758606 
z"/>
<path fill="#000000" opacity="1.000000" stroke="none" 
	d="
M749.359863,312.429382 
	C748.534119,329.131622 738.756958,338.894806 725.104431,345.511871 
	C713.361633,351.203400 700.687012,354.175354 688.039856,357.116180 
	C674.314880,360.307648 661.441956,364.917480 653.521057,377.811615 
	C653.308533,378.157532 652.673340,378.243744 652.187927,378.473511 
	C650.028137,376.900177 651.008667,374.786469 651.295349,372.973236 
	C654.395752,353.364136 666.360779,341.364899 684.397461,334.603607 
	C697.639893,329.639496 711.482788,326.427765 724.489380,320.767609 
	C733.238708,316.960114 741.232117,312.015533 748.222656,305.130096 
	C750.322754,307.432373 749.135376,309.838287 749.359863,312.429382 
z"/>
<path fill="#000000" opacity="1.000000" stroke="none" 
	d="
M257.803772,526.376587 
	C208.559586,524.386719 159.795486,522.388977 111.029877,520.428955 
	C92.887901,519.699829 74.741959,519.069580 56.599182,518.359497 
	C54.995468,518.296631 53.278320,518.808960 51.518604,517.529907 
	C53.212059,516.237366 55.033489,516.667969 56.690979,516.657715 
	C117.516876,516.281311 178.346207,516.202576 239.167557,515.464722 
	C265.826874,515.141296 292.486816,515.004089 319.145721,514.718506 
	C325.387848,514.651611 325.388763,514.740356 324.291199,520.807678 
	C322.709229,529.552856 322.493378,529.435608 313.682953,528.923218 
	C299.551117,528.101440 285.393341,527.731201 271.248169,527.131104 
	C266.923767,526.947632 262.604736,526.636414 257.803772,526.376587 
z"/>
<path fill="#000000" opacity="1.000000" stroke="none" 
	d="
M752.032227,356.795532 
	C777.277100,353.756744 801.822021,349.795715 823.861877,337.564545 
	C825.458130,338.661896 824.810669,339.570770 824.379089,340.440430 
	C814.721252,359.901367 799.515564,372.588623 778.371765,377.916565 
	C762.154480,382.003052 745.666565,383.030304 728.779053,382.246429 
	C728.904663,379.416565 731.259888,378.524872 732.434265,376.862915 
	C734.935913,373.322296 738.167786,369.919922 739.017822,365.770813 
	C740.523010,358.424408 745.250793,356.780670 752.032227,356.795532 
z"/>
<path fill="#000000" opacity="1.000000" stroke="none" 
	d="
M262.999695,546.940857 
	C281.757904,546.937256 300.016083,546.937256 318.432495,546.937256 
	C319.005005,551.130737 317.672028,554.593994 316.944733,558.095154 
	C316.392273,560.754578 314.013000,560.371399 312.043610,560.281677 
	C295.752380,559.539429 279.460327,558.809937 263.172913,557.989746 
	C246.722763,557.161377 230.279907,556.188232 213.829758,555.359619 
	C180.757553,553.693726 147.683212,552.069458 114.607697,550.470886 
	C111.333565,550.312622 108.045151,550.449707 104.763367,550.449707 
	C104.766258,549.744568 104.769157,549.039490 104.772049,548.334351 
	C157.347931,547.871094 209.923813,547.407776 262.999695,546.940857 
z"/>
<path fill="#000000" opacity="1.000000" stroke="none" 
	d="
M725.304626,393.744507 
	C734.051147,392.011353 742.537842,393.465546 750.978394,392.821930 
	C762.562805,391.938568 774.060730,390.661926 785.188843,387.101868 
	C786.114990,386.805573 787.035950,386.268585 788.034912,386.887878 
	C783.911560,406.005707 732.794678,423.582275 707.804016,413.295593 
	C715.765869,408.217468 720.207886,400.969849 725.304626,393.744507 
z"/>
<path fill="#000000" opacity="1.000000" stroke="none" 
	d="
M734.565186,241.555969 
	C746.772217,232.985168 757.452332,223.375443 765.726990,209.601044 
	C767.984680,215.957626 766.637085,221.264191 765.716553,226.079636 
	C763.631897,236.985382 759.150330,246.932404 750.992065,254.964584 
	C748.379517,257.536774 745.520813,259.098053 742.094421,260.078308 
	C728.852112,263.866638 715.160950,265.923706 702.119141,270.473511 
	C700.643555,270.988281 698.880798,271.528564 698.302856,269.634888 
	C697.590271,267.300232 697.042114,264.633057 699.160461,262.633667 
	C700.220581,261.633087 701.645996,260.962708 702.995178,260.334076 
	C714.042786,255.186401 724.149780,248.464157 734.565186,241.555969 
z"/>
<path fill="#000000" opacity="1.000000" stroke="none" 
	d="
M712.213928,361.143433 
	C719.857727,358.602234 725.997559,354.058350 733.344727,349.139465 
	C732.497986,358.409302 729.526245,365.279114 724.058838,371.132965 
	C716.147461,379.603607 705.624939,382.774384 694.848145,385.106659 
	C686.756165,386.857880 678.511230,387.914062 670.321960,389.200195 
	C664.405579,390.129364 662.902893,389.467377 658.226807,384.222473 
	C662.403687,376.316254 670.308777,373.798920 677.902283,371.028137 
	C688.979370,366.986267 700.863037,365.685089 712.213928,361.143433 
z"/>
<path fill="#000000" opacity="1.000000" stroke="none" 
	d="
M243.890289,585.281738 
	C214.457489,583.347290 185.499313,581.429016 156.541153,579.510681 
	C157.986862,577.276489 159.812012,577.702026 161.481216,577.685547 
	C200.465897,577.299622 239.451157,576.968201 278.435669,576.566833 
	C287.927979,576.469055 297.417297,576.107422 306.909485,575.966492 
	C313.532745,575.868164 313.568420,575.982239 312.378479,582.252319 
	C312.161285,583.396790 311.835510,584.528809 311.719208,585.682617 
	C311.402161,588.827209 309.835266,589.711792 306.661835,589.481628 
	C285.904266,587.976013 265.132233,586.669495 243.890289,585.281738 
z"/>
<path fill="#000000" opacity="1.000000" stroke="none" 
	d="
M431.888275,360.642761 
	C430.974365,366.663849 430.063751,372.239594 429.354919,377.840912 
	C429.063812,380.141327 428.401306,381.531250 425.742249,381.534180 
	C417.924744,381.542725 410.107483,381.715057 402.289948,381.806976 
	C398.478851,381.851776 396.407043,380.833832 397.466919,376.194580 
	C398.683197,370.870575 399.155304,365.367645 399.796356,359.924286 
	C400.208527,356.424530 401.561523,354.602570 405.504150,354.743988 
	C412.818085,355.006256 420.151978,354.972412 427.469543,354.771149 
	C431.636383,354.656555 432.859497,356.416901 431.888275,360.642761 
z"/>
<path fill="#000000" opacity="1.000000" stroke="none" 
	d="
M669.506348,281.532898 
	C652.049805,289.609131 637.434021,300.637054 626.310913,316.279816 
	C627.465759,309.341797 631.237488,304.087585 635.868042,299.400848 
	C641.528625,293.671600 648.349304,289.463501 655.221619,285.398041 
	C667.353516,278.221100 678.471375,269.916626 686.700195,258.233246 
	C687.072083,257.705292 687.599792,257.261780 688.129150,256.882538 
	C688.341858,256.730103 688.755127,256.857422 689.664001,256.857422 
	C690.601074,261.391449 691.571838,265.979706 690.577942,270.791718 
	C690.112915,273.043213 688.484741,274.053986 686.549011,274.811737 
	C680.979675,276.991730 675.417053,279.188751 669.506348,281.532898 
z"/>
<path fill="#000000" opacity="1.000000" stroke="none" 
	d="
M682.474121,395.722900 
	C694.590271,395.238312 705.535034,391.699066 717.159912,386.165314 
	C715.734436,393.567627 711.455444,397.661865 707.467102,401.884827 
	C706.343628,403.074463 704.892944,403.983246 703.508789,404.893829 
	C695.763611,409.989136 694.261108,409.956360 686.659363,404.692657 
	C683.432861,402.458557 680.204468,400.227173 676.944214,397.971954 
	C678.396057,395.667419 680.431458,396.224945 682.474121,395.722900 
z"/>
<path fill="#000000" opacity="1.000000" stroke="none" 
	d="
M678.970276,639.794312 
	C676.770996,639.589050 674.975891,639.382935 672.639526,639.114685 
	C672.741089,631.653381 674.103577,624.566650 675.458435,617.504517 
	C675.927063,615.061951 678.327148,615.684937 680.043030,615.676208 
	C683.626709,615.657959 687.482361,614.954346 689.750366,618.971375 
	C694.265076,626.967346 688.519104,638.528015 678.970276,639.794312 
M679.112976,634.631165 
	C682.092102,635.148987 683.904114,633.736206 684.872742,631.059265 
	C685.972229,628.020325 686.609436,624.830017 685.090027,621.850769 
	C683.953918,619.623047 680.095459,619.893555 679.542236,622.234192 
	C678.607544,626.188843 677.293274,630.199829 679.112976,634.631165 
z"/>
<path fill="#000000" opacity="1.000000" stroke="none" 
	d="
M780.255371,623.006104 
	C782.484070,621.416565 784.652954,621.594177 786.645691,621.949036 
	C787.046326,621.528198 787.343567,621.333862 787.473999,621.060059 
	C788.433167,619.047607 787.471680,615.043884 791.222168,615.834778 
	C794.726379,616.573792 792.377014,619.784119 792.216675,621.764465 
	C791.855469,626.228577 790.970032,630.649353 790.326294,635.091858 
	C790.016724,637.227905 790.112854,639.822327 786.953186,639.567505 
	C783.476440,639.287048 779.023438,641.846802 777.045410,636.594238 
	C775.141357,631.537842 776.503235,627.151611 780.255371,623.006104 
M786.174622,631.594482 
	C786.585388,629.637817 787.369324,627.359497 784.645020,626.622803 
	C782.839844,626.134644 782.001160,627.911926 781.660278,629.338379 
	C781.216675,631.194519 780.236206,633.618652 782.396606,634.773376 
	C784.335449,635.809692 785.198975,633.765503 786.174622,631.594482 
z"/>
<path fill="#000000" opacity="1.000000" stroke="none" 
	d="
M604.351562,639.336731 
	C599.805664,640.978760 597.732605,638.778687 596.798218,635.050110 
	C594.984985,627.814331 599.742798,621.706116 606.997925,621.805298 
	C607.223145,621.571655 607.451843,621.340942 607.665710,621.097168 
	C609.057373,619.511047 607.687073,615.361633 611.071655,616.033447 
	C614.836548,616.780762 612.254333,620.128784 612.266541,622.265442 
	C612.290283,626.410767 611.175781,630.470337 610.718018,634.564941 
	C610.253540,638.720764 608.508850,640.034912 604.351562,639.336731 
M603.253723,626.951477 
	C601.665894,628.634644 601.174927,630.689087 601.360168,632.913574 
	C601.482971,634.387512 602.153381,635.748962 603.859680,635.003479 
	C605.850830,634.133484 606.553589,632.156494 606.645691,630.080383 
	C606.729980,628.181213 606.674500,626.232483 603.253723,626.951477 
z"/>
<path fill="#000000" opacity="1.000000" stroke="none" 
	d="
M738.940796,623.832153 
	C741.826477,621.584961 744.739807,620.559326 747.444214,622.840637 
	C750.211060,625.174561 750.790527,628.432617 749.596436,631.939331 
	C749.230042,633.015198 749.236389,634.239685 748.766235,635.254395 
	C747.316895,638.382507 744.918945,640.327087 741.321106,639.993042 
	C737.765076,639.662842 736.125732,637.277710 735.828491,633.928711 
	C735.508118,630.318909 736.326660,626.980591 738.940796,623.832153 
z"/>
<path fill="#000000" opacity="1.000000" stroke="none" 
	d="
M761.966187,626.022339 
	C763.484680,624.765991 764.823730,623.099426 766.559570,622.339966 
	C770.019470,620.826233 773.221985,621.480164 774.741272,625.337280 
	C775.913940,628.314209 776.797913,631.549316 772.186401,632.833862 
	C774.541931,635.447205 773.590210,637.442444 770.957581,639.025940 
	C767.557007,641.071350 763.650085,640.177429 761.929199,636.938782 
	C760.143127,633.577393 761.085144,630.162903 761.940613,626.379883 
	C761.997803,625.991760 761.966187,626.022339 761.966187,626.022339 
z"/>
<path fill="#000000" opacity="1.000000" stroke="none" 
	d="
M624.185913,632.832764 
	C626.582031,635.684265 624.844971,637.493408 622.603333,638.828308 
	C619.642456,640.591553 616.541382,640.864746 614.149048,637.814453 
	C610.808655,633.555603 613.288879,624.358704 618.266235,622.318542 
	C621.450562,621.013306 624.483154,621.541321 625.805786,624.814392 
	C626.844788,627.385498 629.005310,630.857910 624.185913,632.832764 
z"/>
<path fill="#000000" opacity="1.000000" stroke="none" 
	d="
M635.228149,628.095093 
	C636.275818,626.890259 635.744690,626.398560 634.713562,626.431946 
	C634.109192,626.451477 633.491394,626.854004 632.927612,627.169800 
	C631.607727,627.909180 630.264526,628.062744 629.536072,626.571167 
	C628.848816,625.163818 629.841248,623.985229 630.894226,623.171997 
	C633.339905,621.283203 636.192078,621.166504 638.899231,622.243164 
	C641.544556,623.295288 641.494385,625.866150 641.228699,628.215454 
	C640.823120,631.801392 640.254395,635.368896 639.743042,639.029175 
	C637.107666,639.884705 634.449280,638.899292 631.908508,639.896545 
	C630.339355,640.512451 628.742554,639.421021 627.775391,637.850830 
	C626.590088,635.926697 626.968079,634.063721 627.893250,632.191467 
	C629.349915,629.243896 632.294373,628.993530 635.228149,628.095093 
z"/>
<path fill="#000000" opacity="1.000000" stroke="none" 
	d="
M821.677673,639.914185 
	C818.310669,640.217041 816.374878,638.826538 816.072937,635.908630 
	C815.772949,633.008423 817.253052,630.901245 819.872681,629.483215 
	C821.503540,628.600342 823.879028,629.165833 824.982666,627.221436 
	C824.379150,626.251099 823.688904,626.263489 823.098267,626.563660 
	C821.481384,627.385559 819.399536,628.867493 818.454041,626.503845 
	C817.403625,623.877747 819.989014,622.770020 822.000000,622.056702 
	C827.213440,620.207458 830.595154,622.847351 830.163025,628.310669 
	C830.071777,629.464966 829.577637,630.621216 829.656921,631.749390 
	C830.043396,637.245911 828.297058,640.616699 821.677673,639.914185 
z"/>
<path fill="#000000" opacity="1.000000" stroke="none" 
	d="
M705.460571,626.695679 
	C706.739624,631.145447 705.639587,633.172180 701.010864,632.502502 
	C699.629639,632.302734 698.022888,632.059692 696.216125,633.401367 
	C698.300842,637.996033 701.883301,631.148010 704.070618,635.082275 
	C704.137695,637.841248 701.733765,639.147400 698.957031,639.843445 
	C696.038269,640.575134 693.738525,639.448120 692.315247,636.733521 
	C690.150269,632.604370 692.019043,625.429382 695.931580,622.812866 
	C699.590576,620.365906 703.009827,621.636230 705.460571,626.695679 
z"/>
<path fill="#000000" opacity="1.000000" stroke="none" 
	d="
M805.513489,634.511841 
	C805.274536,635.875793 805.230103,636.894470 804.916443,637.822083 
	C804.404480,639.336487 803.171143,639.752258 801.721069,639.361816 
	C800.252930,638.966553 800.234375,637.744873 800.407898,636.549011 
	C801.286499,630.493469 802.171021,624.438538 803.099121,618.390442 
	C803.351562,616.745972 804.245361,615.681885 806.080688,615.692810 
	C808.896057,615.709595 811.712097,615.666748 814.526794,615.711243 
	C815.757385,615.730713 816.887390,616.083557 816.924438,617.613770 
	C816.962524,619.192200 816.124512,620.063477 814.549622,620.212891 
	C814.220154,620.244202 813.880798,620.222168 813.560486,620.291504 
	C811.480835,620.741516 808.133240,619.107056 807.683228,622.298828 
	C807.138123,626.165466 810.904724,624.366577 812.755981,625.060608 
	C814.123901,625.573425 814.455750,626.496277 814.312378,627.768188 
	C814.112915,629.537109 812.859863,629.809753 811.422485,629.703857 
	C808.162903,629.463684 805.885071,630.477173 805.513489,634.511841 
z"/>
<path fill="#000000" opacity="1.000000" stroke="none" 
	d="
M554.052612,628.264526 
	C554.282471,631.805054 553.245850,634.572205 551.296997,636.925171 
	C548.572693,640.214294 543.915283,640.957275 541.140442,638.522156 
	C537.732361,635.531250 538.299500,631.753418 539.515747,627.998535 
	C540.754272,624.174988 543.286255,621.793030 547.457153,621.709351 
	C551.550354,621.627197 553.227600,624.306580 554.052612,628.264526 
M546.761414,634.836670 
	C548.514404,633.606079 549.148621,631.748047 549.456299,629.775574 
	C549.648193,628.544983 549.059326,627.530640 548.007812,626.856934 
	C547.071960,626.257202 546.160645,626.417236 545.269836,627.039185 
	C542.419128,629.029419 542.882507,633.261841 546.761414,634.836670 
z"/>
<path fill="#000000" opacity="1.000000" stroke="none" 
	d="
M646.904785,622.359863 
	C649.206848,621.529846 651.199707,621.372375 653.107117,622.114014 
	C654.703308,622.734619 656.251099,623.879700 655.674255,625.788330 
	C655.130188,627.588135 653.427856,627.453125 651.932556,626.806335 
	C651.018616,626.410950 650.170410,626.041138 649.243774,626.655457 
	C649.411499,628.151367 650.644226,628.201416 651.473755,628.426147 
	C654.249817,629.178345 655.903381,630.832703 655.666565,633.733643 
	C655.411438,636.858704 653.520752,638.842224 650.497192,639.696716 
	C647.532471,640.534546 644.895386,640.065552 642.889343,637.565613 
	C642.148071,636.641785 641.555054,635.471436 642.611877,634.442932 
	C643.626770,633.455322 644.923279,633.125122 646.213928,634.049927 
	C647.335022,634.853210 648.271118,636.479248 649.877258,634.722656 
	C641.692749,628.093201 641.430908,627.127014 646.904785,622.359863 
z"/>
<path fill="#000000" opacity="1.000000" stroke="none" 
	d="
M842.106689,627.165283 
	C840.644226,626.852112 839.549316,626.502686 838.432922,626.247009 
	C838.226013,626.199585 837.932495,626.530579 837.651062,626.704163 
	C838.084473,628.021301 839.305481,628.288757 840.353638,628.603149 
	C843.142456,629.439758 844.605713,631.167480 844.153137,634.108154 
	C843.674744,637.216370 841.781555,639.152405 838.701477,639.818970 
	C835.917114,640.421448 833.410645,639.987915 831.607666,637.521179 
	C830.881226,636.527344 830.411072,635.350830 831.384766,634.359009 
	C832.242065,633.485901 833.523560,633.290222 834.609253,633.955872 
	C835.936157,634.769348 836.970154,636.517273 839.000610,634.757690 
	C838.415649,632.796204 836.361511,633.103577 835.082214,632.341980 
	C833.066162,631.141663 831.611938,629.645142 831.974243,627.187927 
	C832.404541,624.269409 834.200928,622.352844 837.118713,621.855652 
	C839.579529,621.436401 842.235352,621.208069 843.945618,623.577087 
	C845.171570,625.275391 844.799072,626.724548 842.106689,627.165283 
z"/>
<path fill="#000000" opacity="1.000000" stroke="none" 
	d="
M531.431396,638.633057 
	C529.464294,639.413574 528.067871,639.359009 527.849548,637.216370 
	C527.485901,633.647461 529.450317,630.159973 527.721252,626.441833 
	C526.280945,623.344543 524.793030,620.127625 524.526062,616.354370 
	C530.691406,614.149292 529.544373,620.474915 532.172668,622.662476 
	C535.541565,621.233093 535.237061,613.897461 542.047363,616.482422 
	C537.807800,623.582764 532.311584,629.890198 531.431396,638.633057 
z"/>
<path fill="#000000" opacity="1.000000" stroke="none" 
	d="
M568.120483,637.819092 
	C565.251587,640.023682 562.020935,639.507385 559.057983,639.732239 
	C556.559570,639.921936 555.426270,637.541748 555.586670,635.159546 
	C555.819763,631.696289 556.339966,628.251221 556.776123,624.803345 
	C556.955139,623.388794 557.506531,622.131653 559.190369,622.186707 
	C561.381897,622.258301 561.178284,623.958679 561.201904,625.460754 
	C561.253662,628.744507 558.914185,632.105103 561.445679,635.594360 
	C565.561340,633.592957 564.390442,629.508484 565.476196,626.466309 
	C566.093140,624.737549 565.352661,621.800293 568.346252,622.231628 
	C571.290039,622.655823 570.118042,625.319214 569.897278,627.123047 
	C569.474792,630.575439 568.815430,633.998901 568.120483,637.819092 
z"/>
<path fill="#000000" opacity="1.000000" stroke="none" 
	d="
M731.561035,634.440369 
	C730.753174,635.937683 730.332520,637.312927 729.442444,638.234802 
	C727.761047,639.976318 725.630005,640.339111 724.873291,637.552856 
	C723.698242,633.226501 723.054932,628.754272 722.227661,624.336121 
	C722.019897,623.226379 722.450684,622.325195 723.619751,622.055908 
	C724.887451,621.763855 726.053284,622.149048 726.491638,623.416748 
	C727.135254,625.277954 727.546814,627.219360 728.098999,629.282410 
	C731.621582,627.875977 730.271057,620.518799 736.613770,622.448242 
	C736.127136,627.070374 733.290283,630.330750 731.561035,634.440369 
z"/>
<path fill="#000000" opacity="1.000000" stroke="none" 
	d="
M851.114990,617.461304 
	C852.019592,617.198669 852.641846,617.111328 853.264038,617.024048 
	C852.432129,620.299133 857.642944,623.220520 853.376770,627.020020 
	C851.334290,628.839050 851.023987,632.569397 852.536133,635.359375 
	C853.601929,637.325806 854.154724,638.824463 851.761963,639.695984 
	C849.669678,640.458008 846.797485,639.615601 847.161011,637.484680 
	C848.290955,630.861511 844.363953,623.231995 851.114990,617.461304 
z"/>
<path fill="#000000" opacity="1.000000" stroke="none" 
	d="
M711.713989,632.500610 
	C710.607117,635.188843 712.479004,639.882385 708.187195,639.250366 
	C704.460022,638.701355 706.814331,634.795654 706.983582,632.514465 
	C707.312927,628.072937 708.206970,623.665649 709.014526,619.271179 
	C709.320068,617.608582 709.288940,615.181824 712.046631,615.739868 
	C714.357422,616.207397 713.788452,618.190002 713.568542,619.797363 
	C713.007751,623.895569 712.394958,627.986633 711.713989,632.500610 
z"/>
<path fill="#000000" opacity="1.000000" stroke="none" 
	d="
M593.032593,616.157715 
	C596.026123,615.307739 596.624817,616.740356 596.323486,618.951965 
	C595.521362,624.837708 594.704346,630.721619 593.835938,636.597839 
	C593.601501,638.184387 592.917969,639.478210 590.936646,639.200073 
	C589.139587,638.947876 588.951904,637.678162 589.214172,636.258728 
	C590.436890,629.642639 590.566345,622.835083 593.032593,616.157715 
z"/>
<path fill="#000000" opacity="1.000000" stroke="none" 
	d="
M762.011414,625.974426 
	C757.936951,626.437073 756.735718,629.302734 756.261169,632.837219 
	C756.041870,634.470032 755.685852,636.087769 755.325378,637.697449 
	C755.009338,639.108948 753.946106,639.442993 752.671082,639.298828 
	C751.164673,639.128479 750.786926,638.057739 750.968018,636.799988 
	C751.579651,632.551270 751.924622,628.222229 753.024048,624.097778 
	C754.063171,620.199829 757.773315,622.138367 760.281494,621.855530 
	C762.723694,621.580139 762.644287,623.534424 762.055664,625.667969 
	C761.966187,626.022339 761.997803,625.991760 762.011414,625.974426 
z"/>
<path fill="#000000" opacity="1.000000" stroke="none" 
	d="
M581.456970,625.916748 
	C578.035156,626.328125 577.200073,628.624512 576.703064,631.181519 
	C576.293823,633.286682 576.009033,635.417053 575.561218,637.513245 
	C575.276794,638.844727 574.315430,639.402527 572.963501,639.188171 
	C571.747253,638.995361 571.272339,638.118713 571.417725,637.045105 
	C572.016296,632.627014 572.213684,628.072327 573.500000,623.854919 
	C574.595154,620.264648 578.456421,622.124084 580.918396,622.043762 
	C583.425476,621.961914 582.589783,624.187744 581.456970,625.916748 
z"/>
<path fill="#000000" opacity="1.000000" stroke="none" 
	d="
M714.161316,635.196533 
	C714.747925,631.504089 715.266541,628.228455 715.746338,624.947266 
	C715.982422,623.332825 716.501282,621.926575 718.447693,622.070251 
	C720.572266,622.227112 720.581238,623.889893 720.357300,625.407959 
	C719.824951,629.015747 719.183044,632.607788 718.557373,636.201294 
	C718.274231,637.827820 718.174561,639.786133 715.774841,639.484741 
	C713.257019,639.168579 713.935730,637.219360 714.161316,635.196533 
z"/>
<path fill="#000000" opacity="1.000000" stroke="none" 
	d="
M658.638184,634.823364 
	C663.724670,634.568909 661.665100,637.706116 661.270569,639.802246 
	C660.866699,641.948364 659.727539,643.713806 656.550659,644.613037 
	C657.900330,641.078430 656.345947,637.818176 658.638184,634.823364 
z"/>
</svg>